# xmcd
# 
# Track frame offsets:
#     150
#     25064
#     38012
#     50829
#     67241
#     83994
#     94717
#     107551
#     121526
# 
# Disc length: 1802
# 
# Revision: 0
# Processed by: cddbd v1.5.2PL0 Copyright (c) Steve Scherf et al.
# Submitted via: fre:ac v1.0.31
# 
DISCID=6e070809
DTITLE=Hifly - Stop Messing Around
DYEAR=2015
DGENRE=Blues
TTITLE0=If Ya Wanna Love Again
TTITLE1=Stop Messing Around
TTITLE2=We Are Hifly
TTITLE3=Starshine
TTITLE4=Trade Your Anger
TTITLE5=Dead End Sthlm
TTITLE6=Sick 'N Tired
TTITLE7=Grateful
TTITLE8=Walk Alone
EXTD=
EXTT0=
EXTT1=
EXTT2=
EXTT3=
EXTT4=
EXTT5=
EXTT6=
EXTT7=
EXTT8=
PLAYORDER=
